{
  "accessors": [
    {
      "bufferView": 2,
      "componentType": 5126,
      "count": 1967,
      "max": [
        3.068133592605591,
        4.951478958129883,
        23.139455795288086
      ],
      "min": [
        -3.068133592605591,
        -25.201419830322266,
        -21.883197784423828
      ],
      "type": "VEC3"
    },
    {
      "bufferView": 2,
      "byteOffset": 23604,
      "componentType": 5126,
      "count": 1967,
      "max": [
        1.0,
        1.0,
        1.0
      ],
      "min": [
        -1.0,
        -1.0,
        -1.0
      ],
      "type": "VEC3"
    },
    {
      "bufferView": 1,
      "componentType": 5126,
      "count": 1967,
      "max": [
        0.875,
        1.0
      ],
      "min": [
        0.0,
        0.0
      ],
      "type": "VEC2"
    },
    {
      "bufferView": 0,
      "componentType": 5125,
      "count": 3654,
      "type": "SCALAR"
    },
    {
      "bufferView": 2,
      "byteOffset": 47208,
      "componentType": 5126,
      "count": 416,
      "max": [
        1.7054498195648193,
        3.6254711151123047,
        23.779184341430664
      ],
      "min": [
        -1.7054498195648193,
        0.21457168459892273,
        -7.572166442871094
      ],
      "type": "VEC3"
    },
    {
      "bufferView": 2,
      "byteOffset": 52200,
      "componentType": 5126,
      "count": 416,
      "max": [
        0.9951848387718201,
        0.9951848387718201,
        1.0
      ],
      "min": [
        -0.9951848387718201,
        -0.9951848387718201,
        -1.0
      ],
      "type": "VEC3"
    },
    {
      "bufferView": 1,
      "byteOffset": 15736,
      "componentType": 5126,
      "count": 416,
      "max": [
        1.0,
        1.0
      ],
      "min": [
        0.0,
        0.01000000536441803
      ],
      "type": "VEC2"
    },
    {
      "bufferView": 0,
      "byteOffset": 14616,
      "componentType": 5125,
      "count": 666,
      "type": "SCALAR"
    }
  ],
  "asset": {
    "extras": {
      "author": "Programaton (https://sketchfab.com/programaton)",
      "license": "CC-BY-4.0 (http://creativecommons.org/licenses/by/4.0/)",
      "source": "https://sketchfab.com/3d-models/pistol-34ebc77c59eb47ef89e0463469237dac",
      "title": "Pistol"
    },
    "generator": "Sketchfab-12.65.0",
    "version": "2.0"
  },
  "bufferViews": [
    {
      "buffer": 0,
      "byteLength": 17280,
      "name": "floatBufferViews",
      "target": 34963
    },
    {
      "buffer": 0,
      "byteLength": 19064,
      "byteOffset": 17280,
      "byteStride": 8,
      "name": "floatBufferViews",
      "target": 34962
    },
    {
      "buffer": 0,
      "byteLength": 57192,
      "byteOffset": 36344,
      "byteStride": 12,
      "name": "floatBufferViews",
      "target": 34962
    }
  ],
  "buffers": [
    {
      "byteLength": 93536,
      "uri": "scene.bin"
    }
  ],
  "materials": [
    {
      "doubleSided": true,
      "name": "Pistol",
      "pbrMetallicRoughness": {
        "baseColorFactor": [
          0.0495492,
          0.0495492,
          0.0495492,
          1.0
        ],
        "metallicFactor": 0.4862319282863451,
        "roughnessFactor": 0.9852628386498851
      }
    },
    {
      "doubleSided": true,
      "name": "Barrel",
      "pbrMetallicRoughness": {
        "baseColorFactor": [
          0.295692,
          0.295692,
          0.295692,
          1.0
        ],
        "metallicFactor": 0.7595238537521836,
        "roughnessFactor": 0.9166341679851422
      }
    }
  ],
  "meshes": [
    {
      "name": "Pistol_Pistol_0",
      "primitives": [
        {
          "attributes": {
            "NORMAL": 1,
            "POSITION": 0,
            "TEXCOORD_0": 2
          },
          "indices": 3,
          "material": 0,
          "mode": 4
        }
      ]
    },
    {
      "name": "Pistol_Barrel_0",
      "primitives": [
        {
          "attributes": {
            "NORMAL": 5,
            "POSITION": 4,
            "TEXCOORD_0": 6
          },
          "indices": 7,
          "material": 1,
          "mode": 4
        }
      ]
    }
  ],
  "nodes": [
    {
      "children": [
        1
      ],
      "matrix": [
        0.014504259452223778,
        0.0,
        0.0,
        0.0,
        0.0,
        7.32931471199831e-18,
        -0.014504259452223778,
        0.0,
        0.0,
        0.014504259452223778,
        7.32931471199831e-18,
        0.0,
        0.0,
        8.881784197001249e-16,
        1.332267629550188e-15,
        1.0
      ],
      "name": "Sketchfab_model"
    },
    {
      "children": [
        2
      ],
      "matrix": [
        1.0,
        0.0,
        0.0,
        0.0,
        0.0,
        0.0,
        1.0,
        0.0,
        0.0,
        -1.0,
        0.0,
        0.0,
        0.0,
        0.0,
        0.0,
        1.0
      ],
      "name": "9bf510f9bc254e53b1ce88717c39a3f1.fbx"
    },
    {
      "children": [
        3
      ],
      "name": "RootNode"
    },
    {
      "children": [
        4,
        5
      ],
      "matrix": [
        0.48173195123672485,
        0.0,
        0.0,
        0.0,
        0.0,
        0.48173195123672485,
        0.0,
        0.0,
        0.0,
        0.0,
        0.48173195123672485,
        0.0,
        7.315883122439496e-17,
        0.32947808504104614,
        1.8634706735610962,
        1.0
      ],
      "name": "Pistol"
    },
    {
      "mesh": 0,
      "name": "Pistol_Pistol_0"
    },
    {
      "mesh": 1,
      "name": "Pistol_Barrel_0"
    }
  ],
  "scene": 0,
  "scenes": [
    {
      "name": "Sketchfab_Scene",
      "nodes": [
        0
      ]
    }
  ]
}
