{
  "accessors": [
    {
      "bufferView": 2,
      "componentType": 5126,
      "count": 673,
      "max": [
        0.06139932945370674,
        0.10015784949064255,
        0.18451137840747833
      ],
      "min": [
        -0.06139932945370674,
        -0.10015778988599777,
        -0.14361782371997833
      ],
      "type": "VEC3"
    },
    {
      "bufferView": 2,
      "byteOffset": 8076,
      "componentType": 5126,
      "count": 673,
      "max": [
        1.0,
        1.0,
        1.0
      ],
      "min": [
        -1.0,
        -1.0,
        -1.0
      ],
      "type": "VEC3"
    },
    {
      "bufferView": 1,
      "componentType": 5126,
      "count": 673,
      "max": [
        0.875,
        1.0
      ],
      "min": [
        0.0,
        0.0
      ],
      "type": "VEC2"
    },
    {
      "bufferView": 0,
      "componentType": 5125,
      "count": 756,
      "type": "SCALAR"
    },
    {
      "bufferView": 2,
      "byteOffset": 16152,
      "componentType": 5126,
      "count": 46,
      "max": [
        -0.06139932572841644,
        0.03962884098291397,
        0.10862026363611221
      ],
      "min": [
        -0.06139932572841644,
        -0.08329751342535019,
        -0.06750187277793884
      ],
      "type": "VEC3"
    },
    {
      "bufferView": 2,
      "byteOffset": 16704,
      "componentType": 5126,
      "count": 46,
      "max": [
        -1.0,
        0.0,
        -0.0
      ],
      "min": [
        -1.0,
        0.0,
        -0.0
      ],
      "type": "VEC3"
    },
    {
      "bufferView": 1,
      "byteOffset": 5384,
      "componentType": 5126,
      "count": 46,
      "max": [
        0.625,
        0.25
      ],
      "min": [
        0.0,
        0.0
      ],
      "type": "VEC2"
    },
    {
      "bufferView": 0,
      "byteOffset": 3024,
      "componentType": 5125,
      "count": 66,
      "type": "SCALAR"
    },
    {
      "bufferView": 2,
      "byteOffset": 17256,
      "componentType": 5126,
      "count": 806,
      "max": [
        0.06604835391044617,
        0.11434687674045563,
        0.18708549439907074
      ],
      "min": [
        -0.06604835391044617,
        0.06165730208158493,
        -0.14882436394691467
      ],
      "type": "VEC3"
    },
    {
      "bufferView": 2,
      "byteOffset": 26928,
      "componentType": 5126,
      "count": 806,
      "max": [
        1.0,
        1.0,
        1.0
      ],
      "min": [
        -1.0,
        -1.0,
        -1.0
      ],
      "type": "VEC3"
    },
    {
      "bufferView": 1,
      "byteOffset": 5752,
      "componentType": 5126,
      "count": 806,
      "max": [
        0.875,
        1.0
      ],
      "min": [
        0.6249999403953552,
        0.0
      ],
      "type": "VEC2"
    },
    {
      "bufferView": 0,
      "byteOffset": 3288,
      "componentType": 5125,
      "count": 882,
      "type": "SCALAR"
    },
    {
      "bufferView": 2,
      "byteOffset": 36600,
      "componentType": 5126,
      "count": 4,
      "max": [
        0.04481222853064537,
        0.10682105273008347,
        0.18100833892822266
      ],
      "min": [
        -0.04481222853064537,
        0.10682105273008347,
        0.1598181575536728
      ],
      "type": "VEC3"
    },
    {
      "bufferView": 2,
      "byteOffset": 36648,
      "componentType": 5126,
      "count": 4,
      "max": [
        0.0,
        1.0,
        -0.0
      ],
      "min": [
        0.0,
        1.0,
        -0.0
      ],
      "type": "VEC3"
    },
    {
      "bufferView": 1,
      "byteOffset": 12200,
      "componentType": 5126,
      "count": 4,
      "max": [
        0.875,
        0.75
      ],
      "min": [
        0.625,
        0.75
      ],
      "type": "VEC2"
    },
    {
      "bufferView": 0,
      "byteOffset": 6816,
      "componentType": 5125,
      "count": 6,
      "type": "SCALAR"
    },
    {
      "bufferView": 2,
      "byteOffset": 36696,
      "componentType": 5126,
      "count": 404,
      "max": [
        0.0466889888048172,
        0.0022380973678082228,
        0.005492893513292074
      ],
      "min": [
        -0.0466889813542366,
        -0.12113448232412338,
        -0.00991308968514204
      ],
      "type": "VEC3"
    },
    {
      "bufferView": 2,
      "byteOffset": 41544,
      "componentType": 5126,
      "count": 404,
      "max": [
        1.0,
        1.0,
        1.0
      ],
      "min": [
        -1.0,
        -1.0,
        -1.0
      ],
      "type": "VEC3"
    },
    {
      "bufferView": 1,
      "byteOffset": 12232,
      "componentType": 5126,
      "count": 404,
      "max": [
        0.875,
        1.0
      ],
      "min": [
        0.625,
        0.0
      ],
      "type": "VEC2"
    },
    {
      "bufferView": 0,
      "byteOffset": 6840,
      "componentType": 5125,
      "count": 432,
      "type": "SCALAR"
    }
  ],
  "asset": {
    "extras": {
      "author": "notcplkerry (https://sketchfab.com/notcplkerry)",
      "license": "CC-BY-4.0 (http://creativecommons.org/licenses/by/4.0/)",
      "source": "https://sketchfab.com/3d-models/low-poly-ammo-can-958865a802d142f49ec2a6037c63ae0b",
      "title": "Low-Poly Ammo Can"
    },
    "generator": "Sketchfab-14.1.1",
    "version": "2.0"
  },
  "bufferViews": [
    {
      "buffer": 0,
      "byteLength": 8568,
      "name": "floatBufferViews",
      "target": 34963
    },
    {
      "buffer": 0,
      "byteLength": 15464,
      "byteOffset": 8568,
      "byteStride": 8,
      "name": "floatBufferViews",
      "target": 34962
    },
    {
      "buffer": 0,
      "byteLength": 46392,
      "byteOffset": 24032,
      "byteStride": 12,
      "name": "floatBufferViews",
      "target": 34962
    }
  ],
  "buffers": [
    {
      "byteLength": 70424,
      "uri": "scene.bin"
    }
  ],
  "materials": [
    {
      "name": "green",
      "pbrMetallicRoughness": {
        "baseColorFactor": [
          0.0589461,
          0.0668055,
          0.0206893,
          1.0
        ],
        "metallicFactor": 0.308824,
        "roughnessFactor": 0.522059
      }
    },
    {
      "name": "yellow",
      "pbrMetallicRoughness": {
        "baseColorFactor": [
          0.8,
          0.463361,
          0.0019989,
          1.0
        ],
        "metallicFactor": 0.0,
        "roughnessFactor": 0.169118
      }
    }
  ],
  "meshes": [
    {
      "name": "Object_0",
      "primitives": [
        {
          "attributes": {
            "NORMAL": 1,
            "POSITION": 0,
            "TEXCOORD_0": 2
          },
          "indices": 3,
          "material": 0,
          "mode": 4
        }
      ]
    },
    {
      "name": "Object_1",
      "primitives": [
        {
          "attributes": {
            "NORMAL": 5,
            "POSITION": 4,
            "TEXCOORD_0": 6
          },
          "indices": 7,
          "material": 1,
          "mode": 4
        }
      ]
    },
    {
      "name": "Object_2",
      "primitives": [
        {
          "attributes": {
            "NORMAL": 9,
            "POSITION": 8,
            "TEXCOORD_0": 10
          },
          "indices": 11,
          "material": 0,
          "mode": 4
        }
      ]
    },
    {
      "name": "Object_3",
      "primitives": [
        {
          "attributes": {
            "NORMAL": 13,
            "POSITION": 12,
            "TEXCOORD_0": 14
          },
          "indices": 15,
          "material": 1,
          "mode": 4
        }
      ]
    },
    {
      "name": "Object_4",
      "primitives": [
        {
          "attributes": {
            "NORMAL": 17,
            "POSITION": 16,
            "TEXCOORD_0": 18
          },
          "indices": 19,
          "material": 0,
          "mode": 4
        }
      ]
    }
  ],
  "nodes": [
    {
      "children": [
        1
      ],
      "matrix": [
        1.0,
        0.0,
        0.0,
        0.0,
        0.0,
        2.220446049250313e-16,
        -1.0,
        0.0,
        0.0,
        1.0,
        2.220446049250313e-16,
        0.0,
        0.0,
        0.0,
        0.0,
        1.0
      ],
      "name": "Sketchfab_model"
    },
    {
      "children": [
        2
      ],
      "name": "root"
    },
    {
      "children": [
        3,
        6,
        9
      ],
      "matrix": [
        1.0,
        0.0,
        0.0,
        0.0,
        0.0,
        2.220446049250313e-16,
        1.0,
        0.0,
        0.0,
        -1.0,
        2.220446049250313e-16,
        0.0,
        0.0,
        0.0,
        0.0,
        1.0
      ],
      "name": "GLTF_SceneRootNode"
    },
    {
      "children": [
        4,
        5
      ],
      "matrix": [
        1.0266108512878418,
        0.0,
        0.0,
        0.0,
        0.0,
        1.0266108512878418,
        0.0,
        0.0,
        0.0,
        0.0,
        1.0266108512878418,
        0.0,
        0.0,
        0.10000000149011612,
        0.0,
        1.0
      ],
      "name": "ammo_can_0"
    },
    {
      "mesh": 0,
      "name": "Object_4"
    },
    {
      "mesh": 1,
      "name": "Object_5"
    },
    {
      "children": [
        7,
        8
      ],
      "matrix": [
        1.0266108512878418,
        0.0,
        0.0,
        0.0,
        0.0,
        1.0266108512878418,
        0.0,
        0.0,
        0.0,
        0.0,
        1.0266108512878418,
        0.0,
        0.0,
        0.10000000149011612,
        0.0,
        1.0
      ],
      "name": "lid_1"
    },
    {
      "mesh": 2,
      "name": "Object_7"
    },
    {
      "mesh": 3,
      "name": "Object_8"
    },
    {
      "children": [
        10
      ],
      "matrix": [
        1.0266108512878418,
        0.0,
        0.0,
        0.0,
        0.0,
        1.0266108512878418,
        0.0,
        0.0,
        0.0,
        0.0,
        1.0266108512878418,
        0.0,
        0.0,
        0.2000599354505539,
        0.18503732979297638,
        1.0
      ],
      "name": "closing_mechanism_2"
    },
    {
      "mesh": 4,
      "name": "Object_10"
    }
  ],
  "scene": 0,
  "scenes": [
    {
      "name": "Sketchfab_Scene",
      "nodes": [
        0
      ]
    }
  ]
}
