{
  "accessors": [
    {
      "bufferView": 2,
      "componentType": 5126,
      "count": 3469,
      "max": [
        35.62080383300781,
        40.73473358154297,
        48.88233947753906
      ],
      "min": [
        -42.75635528564453,
        -55.93321990966797,
        -0.500004768371582
      ],
      "type": "VEC3"
    },
    {
      "bufferView": 2,
      "byteOffset": 41628,
      "componentType": 5126,
      "count": 3469,
      "type": "VEC3"
    },
    {
      "bufferView": 3,
      "componentType": 5126,
      "count": 3469,
      "type": "VEC4"
    },
    {
      "bufferView": 3,
      "byteOffset": 55504,
      "componentType": 5126,
      "count": 3469,
      "type": "VEC4"
    },
    {
      "bufferView": 1,
      "componentType": 5126,
      "count": 3469,
      "type": "VEC2"
    },
    {
      "bufferView": 0,
      "componentType": 5125,
      "count": 6810,
      "type": "SCALAR"
    },
    {
      "bufferView": 2,
      "byteOffset": 83256,
      "componentType": 5126,
      "count": 2072,
      "max": [
        43.07167053222656,
        41.96421432495117,
        13.451271057128906
      ],
      "min": [
        -40.17748260498047,
        -47.14617919921875,
        -0.5904020667076111
      ],
      "type": "VEC3"
    },
    {
      "bufferView": 2,
      "byteOffset": 108120,
      "componentType": 5126,
      "count": 2072,
      "type": "VEC3"
    },
    {
      "bufferView": 3,
      "byteOffset": 111008,
      "componentType": 5126,
      "count": 2072,
      "type": "VEC4"
    },
    {
      "bufferView": 3,
      "byteOffset": 144160,
      "componentType": 5126,
      "count": 2072,
      "type": "VEC4"
    },
    {
      "bufferView": 1,
      "byteOffset": 27752,
      "componentType": 5126,
      "count": 2072,
      "type": "VEC2"
    },
    {
      "bufferView": 0,
      "byteOffset": 27240,
      "componentType": 5125,
      "count": 3276,
      "type": "SCALAR"
    },
    {
      "bufferView": 2,
      "byteOffset": 132984,
      "componentType": 5126,
      "count": 121,
      "max": [
        100.0,
        100.0,
        0.7874139547348022
      ],
      "min": [
        -100.0,
        -100.0,
        -0.750949501991272
      ],
      "type": "VEC3"
    },
    {
      "bufferView": 2,
      "byteOffset": 134436,
      "componentType": 5126,
      "count": 121,
      "type": "VEC3"
    },
    {
      "bufferView": 1,
      "byteOffset": 44328,
      "componentType": 5126,
      "count": 121,
      "type": "VEC2"
    },
    {
      "bufferView": 0,
      "byteOffset": 40344,
      "componentType": 5125,
      "count": 600,
      "type": "SCALAR"
    }
  ],
  "asset": {
    "generator": "fab-model-conversion",
    "version": "2.0"
  },
  "bufferViews": [
    {
      "buffer": 0,
      "byteLength": 42744,
      "target": 34963
    },
    {
      "buffer": 0,
      "byteLength": 45296,
      "byteOffset": 42744,
      "byteStride": 8,
      "target": 34962
    },
    {
      "buffer": 0,
      "byteLength": 135888,
      "byteOffset": 88040,
      "byteStride": 12,
      "target": 34962
    },
    {
      "buffer": 0,
      "byteLength": 177312,
      "byteOffset": 223928,
      "byteStride": 16,
      "target": 34962
    }
  ],
  "buffers": [
    {
      "byteLength": 401240,
      "uri": "scene.bin"
    }
  ],
  "extensionsUsed": [
    "KHR_materials_specular"
  ],
  "images": [
    {
      "uri": "textures/House_1_baseColor.png"
    },
    {
      "uri": "textures/House_1_metallicRoughness.png"
    },
    {
      "uri": "textures/House_1_normal.png"
    },
    {
      "uri": "textures/House_1_specular_f0.png"
    },
    {
      "uri": "textures/House_1_Alpha_baseColor.png"
    },
    {
      "uri": "textures/Ground_baseColor.png"
    }
  ],
  "materials": [
    {
      "extensions": {
        "KHR_materials_specular": {
          "specularColorFactor": [
            1.0,
            1.0,
            1.0
          ],
          "specularFactor": 1.0,
          "specularTexture": {
            "index": 3
          }
        }
      },
      "name": "House_1",
      "normalTexture": {
        "index": 2
      },
      "pbrMetallicRoughness": {
        "baseColorTexture": {
          "index": 0
        },
        "metallicRoughnessTexture": {
          "index": 1
        }
      }
    },
    {
      "alphaMode": "BLEND",
      "name": "House_1_Alpha",
      "normalTexture": {
        "index": 2
      },
      "pbrMetallicRoughness": {
        "baseColorFactor": [
          1.0,
          1.0,
          1.0,
          0.05
        ],
        "baseColorTexture": {
          "index": 4
        },
        "metallicFactor": 0.0931783537,
        "roughnessFactor": 0.9251143293
      }
    },
    {
      "alphaMode": "BLEND",
      "name": "Ground",
      "pbrMetallicRoughness": {
        "baseColorTexture": {
          "index": 5
        },
        "metallicFactor": 0.0
      }
    }
  ],
  "meshes": [
    {
      "name": "House 1_House 1_0",
      "primitives": [
        {
          "attributes": {
            "COLOR_0": 3,
            "NORMAL": 1,
            "POSITION": 0,
            "TANGENT": 2,
            "TEXCOORD_0": 4
          },
          "indices": 5,
          "material": 0,
          "mode": 4
        }
      ]
    },
    {
      "name": "House 1_House 1 Alpha_0",
      "primitives": [
        {
          "attributes": {
            "COLOR_0": 9,
            "NORMAL": 7,
            "POSITION": 6,
            "TANGENT": 8,
            "TEXCOORD_0": 10
          },
          "indices": 11,
          "material": 1,
          "mode": 4
        }
      ]
    },
    {
      "name": "Ground_Ground_0",
      "primitives": [
        {
          "attributes": {
            "NORMAL": 13,
            "POSITION": 12,
            "TEXCOORD_0": 14
          },
          "indices": 15,
          "material": 2,
          "mode": 4
        }
      ]
    }
  ],
  "nodes": [
    {
      "children": [
        1
      ],
      "matrix": [
        1.0,
        0.0,
        0.0,
        0.0,
        0.0,
        2.220446049250313e-16,
        -1.0,
        0.0,
        0.0,
        1.0,
        2.220446049250313e-16,
        0.0,
        0.0,
        0.0,
        0.0,
        1.0
      ],
      "name": "Sketchfab_model"
    },
    {
      "children": [
        2
      ],
      "matrix": [
        1.0,
        0.0,
        0.0,
        0.0,
        0.0,
        0.0,
        1.0,
        0.0,
        0.0,
        -1.0,
        0.0,
        0.0,
        0.0,
        0.0,
        0.0,
        1.0
      ],
      "name": "9461c38b111049f9a9079db6c52c1fa4.fbx"
    },
    {
      "children": [
        3,
        6
      ],
      "name": "RootNode"
    },
    {
      "children": [
        4,
        5
      ],
      "matrix": [
        1.0,
        0.0,
        0.0,
        0.0,
        0.0,
        2.220446049250313e-16,
        -1.0,
        0.0,
        0.0,
        1.0,
        2.220446049250313e-16,
        0.0,
        0.0,
        0.0,
        0.0,
        1.0
      ],
      "name": "House 1"
    },
    {
      "mesh": 0,
      "name": "House 1_House 1_0"
    },
    {
      "mesh": 1,
      "name": "House 1_House 1 Alpha_0"
    },
    {
      "children": [
        7
      ],
      "matrix": [
        1.0,
        0.0,
        0.0,
        0.0,
        0.0,
        2.220446049250313e-16,
        -1.0,
        0.0,
        0.0,
        1.0,
        2.220446049250313e-16,
        0.0,
        0.0,
        0.0,
        0.0,
        1.0
      ],
      "name": "Ground"
    },
    {
      "mesh": 2,
      "name": "Ground_Ground_0"
    }
  ],
  "samplers": [
    {
      "magFilter": 9729,
      "minFilter": 9987,
      "wrapS": 10497,
      "wrapT": 10497
    }
  ],
  "scene": 0,
  "scenes": [
    {
      "name": "Sketchfab_Scene",
      "nodes": [
        0
      ]
    }
  ],
  "textures": [
    {
      "sampler": 0,
      "source": 0
    },
    {
      "sampler": 0,
      "source": 1
    },
    {
      "sampler": 0,
      "source": 2
    },
    {
      "sampler": 0,
      "source": 3
    },
    {
      "sampler": 0,
      "source": 4
    },
    {
      "sampler": 0,
      "source": 5
    }
  ]
}
