{
  "accessors": [
    {
      "bufferView": 2,
      "componentType": 5126,
      "count": 2376,
      "max": [
        1.6524829864501953,
        -2.6316590309143066,
        0.5669739842414856
      ],
      "min": [
        -3.592850923538208,
        -3.238893985748291,
        -0.2534700036048889
      ],
      "type": "VEC3"
    },
    {
      "bufferView": 2,
      "byteOffset": 28512,
      "componentType": 5126,
      "count": 2376,
      "max": [
        1.0,
        1.0,
        1.0
      ],
      "min": [
        -1.0,
        -1.0,
        -1.0
      ],
      "type": "VEC3"
    },
    {
      "bufferView": 1,
      "componentType": 5126,
      "count": 2376,
      "max": [
        1.0001239776611328,
        1.0
      ],
      "min": [
        -0.00012399999832268804,
        0.0
      ],
      "type": "VEC2"
    },
    {
      "bufferView": 0,
      "componentType": 5125,
      "count": 4320,
      "type": "SCALAR"
    },
    {
      "bufferView": 2,
      "byteOffset": 57024,
      "componentType": 5126,
      "count": 320,
      "max": [
        -0.5752000212669373,
        -2.757702112197876,
        0.44093000888824463
      ],
      "min": [
        -2.5851409435272217,
        -3.1128509044647217,
        0.0857819989323616
      ],
      "type": "VEC3"
    },
    {
      "bufferView": 2,
      "byteOffset": 60864,
      "componentType": 5126,
      "count": 320,
      "max": [
        0.00870051421225071,
        0.9807839393615723,
        0.9807839393615723
      ],
      "min": [
        -0.15260089933872223,
        -0.9807839393615723,
        -0.9807839393615723
      ],
      "type": "VEC3"
    },
    {
      "bufferView": 1,
      "byteOffset": 19008,
      "componentType": 5126,
      "count": 320,
      "max": [
        1.0,
        0.5
      ],
      "min": [
        0.0,
        0.5
      ],
      "type": "VEC2"
    },
    {
      "bufferView": 0,
      "byteOffset": 17280,
      "componentType": 5125,
      "count": 480,
      "type": "SCALAR"
    },
    {
      "bufferView": 2,
      "byteOffset": 64704,
      "componentType": 5126,
      "count": 336,
      "max": [
        0.6316249966621399,
        -2.8685150146484375,
        0.10217899829149246
      ],
      "min": [
        -0.47739601135253906,
        -3.00203800201416,
        -0.6159489750862122
      ],
      "type": "VEC3"
    },
    {
      "bufferView": 2,
      "byteOffset": 68736,
      "componentType": 5126,
      "count": 336,
      "max": [
        1.0,
        1.0,
        0.6035303473472595
      ],
      "min": [
        -1.0,
        -1.0,
        -1.0
      ],
      "type": "VEC3"
    },
    {
      "bufferView": 1,
      "byteOffset": 21568,
      "componentType": 5126,
      "count": 336,
      "max": [
        0.8125,
        1.0
      ],
      "min": [
        0.6875,
        0.5
      ],
      "type": "VEC2"
    },
    {
      "bufferView": 0,
      "byteOffset": 19200,
      "componentType": 5125,
      "count": 828,
      "type": "SCALAR"
    },
    {
      "bufferView": 2,
      "byteOffset": 72768,
      "componentType": 5126,
      "count": 512,
      "max": [
        3.7637689113616943,
        -2.86224102973938,
        0.33639100193977356
      ],
      "min": [
        3.5939900875091553,
        -3.0083119869232178,
        0.19032099843025208
      ],
      "type": "VEC3"
    },
    {
      "bufferView": 2,
      "byteOffset": 78912,
      "componentType": 5126,
      "count": 512,
      "max": [
        1.0,
        0.9807839393615723,
        0.9807839393615723
      ],
      "min": [
        -0.0,
        -0.9807839393615723,
        -0.9807839393615723
      ],
      "type": "VEC3"
    },
    {
      "bufferView": 1,
      "byteOffset": 24256,
      "componentType": 5126,
      "count": 512,
      "max": [
        1.0,
        1.0
      ],
      "min": [
        0.0,
        0.0
      ],
      "type": "VEC2"
    },
    {
      "bufferView": 0,
      "byteOffset": 22512,
      "componentType": 5125,
      "count": 762,
      "type": "SCALAR"
    },
    {
      "bufferView": 2,
      "byteOffset": 85056,
      "componentType": 5126,
      "count": 585,
      "max": [
        0.9191340208053589,
        -2.8861100673675537,
        0.10980399698019028
      ],
      "min": [
        0.3418959975242615,
        -2.984442949295044,
        -0.24536900222301483
      ],
      "type": "VEC3"
    },
    {
      "bufferView": 2,
      "byteOffset": 92076,
      "componentType": 5126,
      "count": 585,
      "max": [
        1.0,
        1.0,
        0.9990879893302917
      ],
      "min": [
        -0.9999727010726929,
        -1.0,
        -1.0
      ],
      "type": "VEC3"
    },
    {
      "bufferView": 1,
      "byteOffset": 28352,
      "componentType": 5126,
      "count": 585,
      "max": [
        0.8125,
        1.0
      ],
      "min": [
        0.0,
        0.0
      ],
      "type": "VEC2"
    },
    {
      "bufferView": 0,
      "byteOffset": 25560,
      "componentType": 5125,
      "count": 1377,
      "type": "SCALAR"
    },
    {
      "bufferView": 2,
      "byteOffset": 99096,
      "componentType": 5126,
      "count": 754,
      "max": [
        3.5939900875091553,
        -2.695897102355957,
        0.50273597240448
      ],
      "min": [
        1.6524829864501953,
        -3.1746559143066406,
        0.023977000266313553
      ],
      "type": "VEC3"
    },
    {
      "bufferView": 2,
      "byteOffset": 108144,
      "componentType": 5126,
      "count": 754,
      "max": [
        1.0,
        0.9807839393615723,
        0.9807839393615723
      ],
      "min": [
        -0.20540960133075714,
        -0.9807839393615723,
        -0.9807839393615723
      ],
      "type": "VEC3"
    },
    {
      "bufferView": 1,
      "byteOffset": 33032,
      "componentType": 5126,
      "count": 754,
      "max": [
        1.0,
        1.0
      ],
      "min": [
        0.0,
        1.0
      ],
      "type": "VEC2"
    },
    {
      "bufferView": 0,
      "byteOffset": 31068,
      "componentType": 5125,
      "count": 1152,
      "type": "SCALAR"
    }
  ],
  "asset": {
    "extras": {
      "author": "Astrien (https://sketchfab.com/Astrien)",
      "license": "CC-BY-NC-4.0 (http://creativecommons.org/licenses/by-nc/4.0/)",
      "source": "https://sketchfab.com/3d-models/rpg-launcher-low-poly-1247716d5b6d4b9fa26c678f219d2767",
      "title": "RPG Launcher Low Poly"
    },
    "generator": "Sketchfab-12.66.0",
    "version": "2.0"
  },
  "bufferViews": [
    {
      "buffer": 0,
      "byteLength": 35676,
      "name": "floatBufferViews",
      "target": 34963
    },
    {
      "buffer": 0,
      "byteLength": 39064,
      "byteOffset": 35676,
      "byteStride": 8,
      "name": "floatBufferViews",
      "target": 34962
    },
    {
      "buffer": 0,
      "byteLength": 117192,
      "byteOffset": 74740,
      "byteStride": 12,
      "name": "floatBufferViews",
      "target": 34962
    }
  ],
  "buffers": [
    {
      "byteLength": 191932,
      "uri": "scene.bin"
    }
  ],
  "materials": [
    {
      "doubleSided": true,
      "name": "black",
      "pbrMetallicRoughness": {
        "baseColorFactor": [
          0.02721,
          0.02721,
          0.02721,
          1.0
        ],
        "metallicFactor": 0.0
      }
    },
    {
      "doubleSided": true,
      "name": "brown",
      "pbrMetallicRoughness": {
        "baseColorFactor": [
          0.102453,
          0.048141,
          0.018399,
          1.0
        ],
        "metallicFactor": 0.0
      }
    },
    {
      "doubleSided": true,
      "name": "darker_brown",
      "pbrMetallicRoughness": {
        "baseColorFactor": [
          0.02721,
          0.015892,
          0.009786,
          1.0
        ],
        "metallicFactor": 0.0,
        "roughnessFactor": 0.8063508327
      }
    },
    {
      "doubleSided": true,
      "name": "material",
      "pbrMetallicRoughness": {
        "baseColorFactor": [
          0.132864,
          0.132864,
          0.132864,
          1.0
        ],
        "metallicFactor": 0.0
      }
    },
    {
      "doubleSided": true,
      "name": "metal",
      "pbrMetallicRoughness": {
        "baseColorFactor": [
          0.603816,
          0.603816,
          0.603816,
          1.0
        ],
        "roughnessFactor": 0.5
      }
    },
    {
      "doubleSided": true,
      "name": "rocket",
      "pbrMetallicRoughness": {
        "baseColorFactor": [
          0.049549,
          0.045322,
          0.023744,
          1.0
        ],
        "metallicFactor": 0.0
      }
    }
  ],
  "meshes": [
    {
      "name": "Object_0",
      "primitives": [
        {
          "attributes": {
            "NORMAL": 1,
            "POSITION": 0,
            "TEXCOORD_0": 2
          },
          "indices": 3,
          "material": 0,
          "mode": 4
        }
      ]
    },
    {
      "name": "Object_1",
      "primitives": [
        {
          "attributes": {
            "NORMAL": 5,
            "POSITION": 4,
            "TEXCOORD_0": 6
          },
          "indices": 7,
          "material": 1,
          "mode": 4
        }
      ]
    },
    {
      "name": "Object_2",
      "primitives": [
        {
          "attributes": {
            "NORMAL": 9,
            "POSITION": 8,
            "TEXCOORD_0": 10
          },
          "indices": 11,
          "material": 2,
          "mode": 4
        }
      ]
    },
    {
      "name": "Object_3",
      "primitives": [
        {
          "attributes": {
            "NORMAL": 13,
            "POSITION": 12,
            "TEXCOORD_0": 14
          },
          "indices": 15,
          "material": 3,
          "mode": 4
        }
      ]
    },
    {
      "name": "Object_4",
      "primitives": [
        {
          "attributes": {
            "NORMAL": 17,
            "POSITION": 16,
            "TEXCOORD_0": 18
          },
          "indices": 19,
          "material": 4,
          "mode": 4
        }
      ]
    },
    {
      "name": "Object_5",
      "primitives": [
        {
          "attributes": {
            "NORMAL": 21,
            "POSITION": 20,
            "TEXCOORD_0": 22
          },
          "indices": 23,
          "material": 5,
          "mode": 4
        }
      ]
    }
  ],
  "nodes": [
    {
      "children": [
        1
      ],
      "matrix": [
        1.0,
        0.0,
        0.0,
        0.0,
        0.0,
        2.220446049250313e-16,
        -1.0,
        0.0,
        0.0,
        1.0,
        2.220446049250313e-16,
        0.0,
        0.0,
        0.0,
        0.0,
        1.0
      ],
      "name": "Sketchfab_model"
    },
    {
      "children": [
        2,
        3,
        4,
        5,
        6,
        7
      ],
      "name": "RPG.obj.cleaner.materialmerger.gles"
    },
    {
      "mesh": 0,
      "name": "Object_2"
    },
    {
      "mesh": 1,
      "name": "Object_3"
    },
    {
      "mesh": 2,
      "name": "Object_4"
    },
    {
      "mesh": 3,
      "name": "Object_5"
    },
    {
      "mesh": 4,
      "name": "Object_6"
    },
    {
      "mesh": 5,
      "name": "Object_7"
    }
  ],
  "scene": 0,
  "scenes": [
    {
      "name": "Sketchfab_Scene",
      "nodes": [
        0
      ]
    }
  ]
}
